<?xml version="1.0" encoding="UTF-8"?>
<svg width="128" height="128" fill="none" viewBox="0 0 128 128" xmlns="http://www.w3.org/2000/svg">
 <g clip-path="url(#clip0)" fill="#000">
  <path d="m41.793 86.035c6.0153 2.738 13.846 5.7311 17.465 6.4603-2.0883 2.2347-4.4949 4.8455-6.0963 6.6942-3.7948 4.3806-5.7624 5.0866-15.847 5.0866-6.3182 0-17.287 4.724-17.287 4.724s-1.4749-4.724-1.4405-9.4473c0.0395-5.4311 4.6819-13.081 4.6819-13.081s10.383 1.1504 16.206 0c0.7747-0.153 1.5685-0.3014 2.317-0.437z" clip-rule="evenodd" fill-rule="evenodd"/>
  <path d="m37.933 84.18c-3.8484 0.5672-10.334 1.0891-15.744-0.6153-6.5551-2.0652-9.6886-3.7367-12.605-9.0838-0.79205-1.4521-1.0522-2.8047-1.3077-4.1337-0.2013-1.0468-0.39978-2.0789-0.85316-3.1334-2.4281-5.6475-7.9233-14.171-7.9233-14.171s6.0171-4.4246 10.084-5.8135c4.1492-1.417 11.165-1.0903 11.165-1.0903l5.1924 5.4882c-1.388 3.1301-2.3112 5.7339-2.3112 7.0274 0 2.2879 7.5615 20.464 10.586 23.26 0.6028 0.5574 1.9417 1.3542 3.7171 2.2656z" clip-rule="evenodd" fill-rule="evenodd"/>
  <path d="m41.248 28.288c-1.4413 0.7717-2.566 1.5006-3.2507 2.1498-1.8536 1.7577-7.4962 11.453-11.134 19.176l-3.5926-3.8378s-1.9977-1.4534-1.0814-9.8106c0.6118-5.5795 1.4773-13.181 3.962-14.171 2.2843-0.9099 3.9383-0.5799 6.23-0.1225 0.2011 0.0401 0.4071 0.0812 0.6188 0.1225 1.818 0.3549 5.2674 3.4774 8.2475 6.494z" clip-rule="evenodd" fill-rule="evenodd"/>
  <path d="m84.72 99.816c0.7768-0.2917 1.3531-0.5459 1.6703-0.743 2.2136-1.3751 7.4267-7.5526 11.99-15.101 0.9497-0.1031 1.8996-0.2366 2.6816-0.4078 3.002-0.6569 7.563-1.8168 7.563-1.8168s3.847 6.1229 5.042 10.537c1.26 4.6541 0 12.354 0 12.354s-5.56-2.341-10.804-3.27c-4.8259-0.855-12.173-1.311-18.143-1.5527z" clip-rule="evenodd" fill-rule="evenodd"/>
  <path d="m99.816 81.512c3.3831-6.0216 6.1461-12.641 6.6121-18.281 0.249-3.0145-0.796-6.8319-2.652-10.968 0.62-0.9039 1.238-1.9241 1.608-2.8533 1.233-3.0994 1.44-8.7205 1.44-8.7205s6.216-0.7442 10.085-1e-4c4.517 0.869 10.52 3.6495 10.804 4.7237 1.067 4.0349-1.025 8.8663-3.206 13.905-0.765 1.7674-1.541 3.5604-2.196 5.3533-2.609 7.1437-4.233 8.4403-6.06 9.8986-0.256 0.2042-0.516 0.4116-0.783 0.6387-4.355 3.7026-11.252 5.494-15.652 6.3037z" clip-rule="evenodd" fill-rule="evenodd"/>
  <path d="m102.76 50.132c-4.0362-8.0654-10.718-16.989-16.687-23.412 0.8721-1.5777 2.062-3.2957 3.4603-4.1981 0.2241-0.1446 0.4496-0.294 0.6759-0.4439 1.8893-1.2516 3.8306-2.5375 5.4466-1.3729 2.5211 1.8168 9.0035 15.988 9.0035 22.164 0 2.5775-1.008 5.3311-1.899 7.2629z" clip-rule="evenodd" fill-rule="evenodd"/>
  <path d="m72.956 71.952c0.4228 2.8168 0.1134 4.5364-0.7211 7.2584-0.8345 2.7221-9.0143 10.926-11.538 11.976-2.1634 0.9-22.716-7.5003-25.601-10.162-2.8846-2.6614-10.096-19.96-10.096-22.138 0-4.3551 11.017-24.316 13.702-26.856 4.6875-4.4358 31.01-12.784 35.336-11.976 6.4899 1.2119 31.009 30.122 29.927 43.187-1.081 13.065-15.144 31.656-19.11 34.114-1.9478 1.2076-14.137 4.6655-21.634 5.4435-7.7678 0.807-10.817-1.088-10.817-1.088s1e-4 -1e-3 3e-4 -1e-3l23.797-7.7111c3.9659-2.4588 14.216-13.338 15.298-26.403s-11-23.597-19-28.597c-3.7326-2.3329-16.49-4.4359-21.178-1e-4 -2.6845 2.5405-11.322 14.5-12.822 18.5-0.7647 2.0388 1.6152 11.838 4.4998 14.5s11.967 9.0252 14.5 9.0252 7.4998-1.0253 8.4999-4.0252 2.1853-7.2065 0-9.4029c-2.4531-2.4655-5.2849-6.1461-5.3029-6.1695 0 0 6.5533 0.7929 9.0143 3.2663 2.1853 2.1963 2.7838 4.1849 3.2451 7.2583zm-19.55-5.7126c-1.1286-1.4539-2.0094-3.1533-2.0846-4.812-0.0407-0.8972 6.0251-8.7277 11.899-9.4359 0.452-0.0545 2.0893 0.6011 4.1637 1.7959-2.0745-1.1948-3.7118-1.8505-4.1638-1.796-5.8738 0.7082-11.94 8.5387-11.899 9.4359 0.0753 1.6587 0.9561 3.3582 2.0847 4.8121z" clip-rule="evenodd" fill-rule="evenodd"/>
  <path d="m43 72c2.8846 2.6614 11.967 9.0252 14.5 9.0252s7.4998-1.0253 8.4999-4.0252 2.1853-7.2065 0-9.4029c-2.461-2.4734-5.303-6.1696-5.303-6.1696s0 7.858-2.1634 8.7101c-1.0821 0.4261-7.0109-4.2869-7.2115-8.7101-0.0407-0.8972 6.0251-8.7277 11.899-9.4359 1.4419-0.1739 14.945 6.8788 16.226 15.606 0.7836 5.339-0.4864 8.8003-3.2451 13.428-2.1634 3.6291-23.798 20.686-23.798 20.686l23.798-7.7111c3.9659-2.4588 14.216-13.338 15.298-26.403s-11-23.597-19-28.597c-3.7326-2.3329-16.49-4.4359-21.178-1e-4 -2.6845 2.5405-11.322 14.5-12.822 18.5-0.7647 2.0388 1.6152 11.838 4.4998 14.5z" fill-opacity=".8"/>
 </g>
 <defs>
  <clipPath id="clip0">
   <rect width="128" height="128" fill="#fff"/>
  </clipPath>
 </defs>
</svg>
