<?xml version="1.0" encoding="UTF-8"?>
<svg width="128" height="128" fill="none" viewBox="0 0 128 128" xmlns="http://www.w3.org/2000/svg">
 <g clip-path="url(#clip0)" fill="#000">
  <path d="m41.793 86.035c6.0153 2.738 13.846 5.7311 17.465 6.4603-2.0883 2.2347-4.4949 4.8455-6.0963 6.6942-3.7948 4.3806-5.7624 5.0866-15.847 5.0866-6.3182 0-17.287 4.724-17.287 4.724s-1.4749-4.724-1.4405-9.4473c0.0395-5.4311 4.6819-13.081 4.6819-13.081s10.383 1.1504 16.206 0c0.7747-0.153 1.5685-0.3014 2.317-0.437z" clip-rule="evenodd" fill-rule="evenodd"/>
  <path d="m37.933 84.18c-3.8484 0.5672-10.334 1.0891-15.744-0.6153-6.5551-2.0652-9.6886-3.7367-12.605-9.0838-0.79205-1.4521-1.0522-2.8047-1.3077-4.1337-0.2013-1.0468-0.39978-2.0789-0.85316-3.1334-2.4281-5.6475-7.9233-14.171-7.9233-14.171s6.0171-4.4246 10.084-5.8135c4.1492-1.417 11.165-1.0903 11.165-1.0903l5.1924 5.4882c-1.388 3.1301-2.3112 5.7339-2.3112 7.0274 0 2.2879 7.5615 20.464 10.586 23.26 0.6028 0.5574 1.9417 1.3542 3.7171 2.2656z" clip-rule="evenodd" fill-rule="evenodd"/>
  <path d="m41.248 28.288c-1.4413 0.7717-2.566 1.5006-3.2507 2.1498-1.8536 1.7577-7.4962 11.453-11.134 19.176l-3.5926-3.8378s-1.9977-1.4534-1.0814-9.8106c0.6118-5.5795 1.4773-13.181 3.962-14.171 2.2843-0.9099 3.9383-0.5799 6.23-0.1225 0.2011 0.0401 0.4071 0.0812 0.6188 0.1225 1.818 0.3549 5.2674 3.4774 8.2475 6.494z" clip-rule="evenodd" fill-rule="evenodd"/>
  <path d="m84.72 99.816c0.7768-0.2917 1.3531-0.5459 1.6703-0.743 2.2136-1.3751 7.4267-7.5526 11.99-15.101 0.9497-0.1031 1.8996-0.2366 2.6816-0.4078 3.002-0.6569 7.563-1.8168 7.563-1.8168s3.847 6.1229 5.042 10.537c1.26 4.6541 0 12.354 0 12.354s-5.56-2.341-10.804-3.27c-4.8259-0.855-12.173-1.311-18.143-1.5527z" clip-rule="evenodd" fill-rule="evenodd"/>
  <path d="m99.816 81.512c3.3831-6.0216 6.1461-12.641 6.6121-18.281 0.249-3.0145-0.796-6.8319-2.652-10.968 0.62-0.9039 1.238-1.9241 1.608-2.8533 1.233-3.0994 1.44-8.7205 1.44-8.7205s6.216-0.7442 10.085-1e-4c4.517 0.869 10.52 3.6495 10.804 4.7237 1.067 4.0349-1.025 8.8663-3.206 13.905-0.765 1.7674-1.541 3.5604-2.196 5.3533-2.609 7.1437-4.233 8.4403-6.06 9.8986-0.256 0.2042-0.516 0.4116-0.783 0.6387-4.355 3.7026-11.252 5.494-15.652 6.3037z" clip-rule="evenodd" fill-rule="evenodd"/>
  <path d="m102.76 50.132c-4.0362-8.0654-10.718-16.989-16.687-23.412 0.8721-1.5777 2.062-3.2957 3.4603-4.1981 0.2241-0.1446 0.4496-0.294 0.6759-0.4439 1.8893-1.2516 3.8306-2.5375 5.4466-1.3729 2.5211 1.8168 9.0035 15.988 9.0035 22.164 0 2.5775-1.008 5.3311-1.899 7.2629z" clip-rule="evenodd" fill-rule="evenodd"/>
  <path d="m72.235 79.21c0.8345-2.722 1.1439-4.4416 0.7211-7.2584-0.4613-3.0734-1.0598-5.062-3.2451-7.2583-2.461-2.4734-9.0143-3.2663-9.0143-3.2663s0 7.858-2.1634 8.7101c-1.0821 0.4261-7.0109-4.287-7.2115-8.7101-0.0407-0.8972 6.0251-8.7277 11.899-9.4359 1.4419-0.1739 14.945 6.8788 16.226 15.606 0.7836 5.339-0.4864 8.8003-3.2451 13.428-2.1634 3.6292-23.798 20.687-23.798 20.687s3.0494 1.895 10.817 1.088c7.4974-0.778 19.686-4.2359 21.634-5.4435 3.966-2.4587 18.029-21.049 19.11-34.114 1.082-13.065-23.437-41.976-29.927-43.187-4.3269-0.8079-30.649 7.5406-35.336 11.976-2.6845 2.5404-13.702 22.501-13.702 26.856 0 2.1775 7.2114 19.477 10.096 22.138 2.8846 2.6615 23.438 11.062 25.601 10.162 2.524-1.05 10.704-9.2543 11.538-11.976z"/>
 </g>
 <defs>
  <clipPath id="clip0">
   <rect width="128" height="128" fill="#fff"/>
  </clipPath>
 </defs>
</svg>
